<svg width="16" height="17" viewBox="0 0 16 17" fill="none" xmlns="http://www.w3.org/2000/svg">
<g opacity="0.5">
<path d="M7.17484 1.94693C7.54612 1.73257 8.00356 1.73257 8.37484 1.94693L13.0577 4.6506C13.429 4.86495 13.6577 5.26111 13.6577 5.68983V11.0972C13.6577 11.5259 13.429 11.922 13.0577 12.1364L8.37484 14.8401C8.00356 15.0544 7.54612 15.0544 7.17484 14.8401L2.49195 12.1364C2.12067 11.922 1.89195 11.5259 1.89195 11.0972V5.68983C1.89195 5.26111 2.12067 4.86495 2.49195 4.6506L7.17484 1.94693Z" stroke="white" stroke-width="1.6"/>
<path d="M7.8526 14.7223L7.8526 8.62036" stroke="white" stroke-width="1.6" stroke-linecap="round"/>
<path d="M2.30023 5.05664L7.96216 8.35425L13.4375 5.05664" stroke="white" stroke-width="1.6" stroke-linecap="round"/>
</g>
</svg>
