<svg width="22" height="22" viewBox="0 0 22 22" fill="none" xmlns="http://www.w3.org/2000/svg">
<path fill-rule="evenodd" clip-rule="evenodd" d="M2.41248 6.52881C2.41248 4.11256 4.37123 2.15381 6.78748 2.15381H15.5375C17.9537 2.15381 19.9125 4.11256 19.9125 6.52881V15.2788C19.9125 17.6951 17.9537 19.6538 15.5375 19.6538H6.78748C4.37123 19.6538 2.41248 17.6951 2.41248 15.2788V6.52881ZM6.78748 3.90381C5.33773 3.90381 4.16248 5.07906 4.16248 6.52881V15.2788C4.16248 16.7286 5.33773 17.9038 6.78748 17.9038H15.5375C16.9872 17.9038 18.1625 16.7286 18.1625 15.2788V6.52881C18.1625 5.07906 16.9872 3.90381 15.5375 3.90381H6.78748Z" fill="white"/>
<path fill-rule="evenodd" clip-rule="evenodd" d="M7.66248 9.15381C8.14572 9.15381 8.53748 9.54556 8.53748 10.0288L8.53748 14.4038C8.53748 14.8871 8.14572 15.2788 7.66248 15.2788C7.17923 15.2788 6.78748 14.8871 6.78748 14.4038L6.78748 10.0288C6.78748 9.54556 7.17923 9.15381 7.66248 9.15381Z" fill="white"/>
<path fill-rule="evenodd" clip-rule="evenodd" d="M14.6625 10.9038C15.1457 10.9038 15.5375 11.2956 15.5375 11.7788V14.4038C15.5375 14.8871 15.1457 15.2788 14.6625 15.2788C14.1792 15.2788 13.7875 14.8871 13.7875 14.4038L13.7875 11.7788C13.7875 11.2956 14.1792 10.9038 14.6625 10.9038Z" fill="white"/>
<path fill-rule="evenodd" clip-rule="evenodd" d="M11.1625 6.52881C11.6457 6.52881 12.0375 6.92056 12.0375 7.40381L12.0375 14.4038C12.0375 14.8871 11.6457 15.2788 11.1625 15.2788C10.6792 15.2788 10.2875 14.8871 10.2875 14.4038L10.2875 7.40381C10.2875 6.92056 10.6792 6.52881 11.1625 6.52881Z" fill="white"/>
</svg>
