<svg width="18" height="18" viewBox="0 0 18 18" fill="none" xmlns="http://www.w3.org/2000/svg">
<g opacity="0.5">
<path fill-rule="evenodd" clip-rule="evenodd" d="M8.82229 2.97917C5.69267 2.97917 3.15562 5.51622 3.15562 8.64583C3.15562 11.7754 5.69267 14.3125 8.82229 14.3125C11.9519 14.3125 14.489 11.7754 14.489 8.64583C14.489 5.51622 11.9519 2.97917 8.82229 2.97917ZM1.73895 8.64583C1.73895 4.73382 4.91027 1.5625 8.82229 1.5625C12.7343 1.5625 15.9056 4.73382 15.9056 8.64583C15.9056 12.5579 12.7343 15.7292 8.82229 15.7292C4.91027 15.7292 1.73895 12.5579 1.73895 8.64583Z" fill="white"/>
<path fill-rule="evenodd" clip-rule="evenodd" d="M11.4481 6.01999C11.6378 6.2097 11.7041 6.49032 11.6192 6.74485L10.5567 9.93235C10.4862 10.1439 10.3203 10.3098 10.1087 10.3803L6.92124 11.4428C6.66671 11.5277 6.38609 11.4614 6.19638 11.2717C6.00666 11.082 5.94042 10.8014 6.02526 10.5469L7.08776 7.35936C7.15826 7.14785 7.32424 6.98187 7.53575 6.91137L10.7232 5.84887C10.9778 5.76403 11.2584 5.83027 11.4481 6.01999ZM8.31973 8.14334L7.81722 9.65088L9.32476 9.14837L9.82727 7.64083L8.31973 8.14334Z" fill="white"/>
</g>
</svg>
